<?xml version="1.0" encoding="UTF-8"?>
<svg xmlns="http://www.w3.org/2000/svg" xmlns:xlink="http://www.w3.org/1999/xlink" width="3873" height="3872.9" viewBox="0 0 3873 3872.9">
<defs>
<clipPath id="clip-0">
<path clip-rule="nonzero" d="M 0 0 L 3873 0 L 3873 3872.898438 L 0 3872.898438 Z M 0 0 "/>
</clipPath>
<clipPath id="clip-1">
<path clip-rule="evenodd" d="M 756.398438 0 L 3116.5 0 C 3534.300781 0 3873 338.699219 3873 756.398438 L 3873 3116.5 C 3873 3534.300781 3534.300781 3872.898438 3116.601562 3872.898438 L 756.398438 3872.898438 C 338.699219 3873 0 3534.300781 0 3116.5 L 0 756.398438 C 0 338.699219 338.699219 0 756.398438 0 "/>
</clipPath>
<linearGradient id="linear-pattern-0" gradientUnits="userSpaceOnUse" x1="-0.194443" y1="0" x2="1.19443" y2="0" gradientTransform="matrix(2788.55, 2788.56, -2788.56, 2788.55, 542.22, 542.21)">
<stop offset="0" stop-color="rgb(55.293274%, 82.743835%, 91.763306%)" stop-opacity="1"/>
<stop offset="0.125" stop-color="rgb(55.293274%, 82.743835%, 91.763306%)" stop-opacity="1"/>
<stop offset="0.140625" stop-color="rgb(55.278015%, 82.725525%, 91.758728%)" stop-opacity="1"/>
<stop offset="0.144531" stop-color="rgb(55.06897%, 82.476807%, 91.702271%)" stop-opacity="1"/>
<stop offset="0.148437" stop-color="rgb(54.875183%, 82.247925%, 91.648865%)" stop-opacity="1"/>
<stop offset="0.152344" stop-color="rgb(54.681396%, 82.017517%, 91.595459%)" stop-opacity="1"/>
<stop offset="0.15625" stop-color="rgb(54.48761%, 81.788635%, 91.542053%)" stop-opacity="1"/>
<stop offset="0.160156" stop-color="rgb(54.293823%, 81.558228%, 91.488647%)" stop-opacity="1"/>
<stop offset="0.164062" stop-color="rgb(54.100037%, 81.329346%, 91.436768%)" stop-opacity="1"/>
<stop offset="0.167969" stop-color="rgb(53.90625%, 81.098938%, 91.383362%)" stop-opacity="1"/>
<stop offset="0.171875" stop-color="rgb(53.713989%, 80.870056%, 91.329956%)" stop-opacity="1"/>
<stop offset="0.175781" stop-color="rgb(53.520203%, 80.639648%, 91.27655%)" stop-opacity="1"/>
<stop offset="0.179688" stop-color="rgb(53.326416%, 80.409241%, 91.223145%)" stop-opacity="1"/>
<stop offset="0.183594" stop-color="rgb(53.132629%, 80.178833%, 91.169739%)" stop-opacity="1"/>
<stop offset="0.1875" stop-color="rgb(52.938843%, 79.949951%, 91.117859%)" stop-opacity="1"/>
<stop offset="0.191406" stop-color="rgb(52.745056%, 79.719543%, 91.064453%)" stop-opacity="1"/>
<stop offset="0.195312" stop-color="rgb(52.55127%, 79.490662%, 91.011047%)" stop-opacity="1"/>
<stop offset="0.199219" stop-color="rgb(52.357483%, 79.260254%, 90.957642%)" stop-opacity="1"/>
<stop offset="0.203125" stop-color="rgb(52.165222%, 79.031372%, 90.904236%)" stop-opacity="1"/>
<stop offset="0.207031" stop-color="rgb(51.971436%, 78.800964%, 90.85083%)" stop-opacity="1"/>
<stop offset="0.210937" stop-color="rgb(51.777649%, 78.572083%, 90.797424%)" stop-opacity="1"/>
<stop offset="0.214844" stop-color="rgb(51.583862%, 78.341675%, 90.744019%)" stop-opacity="1"/>
<stop offset="0.21875" stop-color="rgb(51.390076%, 78.112793%, 90.692139%)" stop-opacity="1"/>
<stop offset="0.222656" stop-color="rgb(51.196289%, 77.882385%, 90.638733%)" stop-opacity="1"/>
<stop offset="0.226562" stop-color="rgb(51.002502%, 77.651978%, 90.585327%)" stop-opacity="1"/>
<stop offset="0.230469" stop-color="rgb(50.808716%, 77.42157%, 90.531921%)" stop-opacity="1"/>
<stop offset="0.234375" stop-color="rgb(50.616455%, 77.192688%, 90.478516%)" stop-opacity="1"/>
<stop offset="0.238281" stop-color="rgb(50.422668%, 76.96228%, 90.42511%)" stop-opacity="1"/>
<stop offset="0.242188" stop-color="rgb(50.228882%, 76.733398%, 90.37323%)" stop-opacity="1"/>
<stop offset="0.246094" stop-color="rgb(50.035095%, 76.502991%, 90.319824%)" stop-opacity="1"/>
<stop offset="0.25" stop-color="rgb(49.841309%, 76.274109%, 90.266418%)" stop-opacity="1"/>
<stop offset="0.253906" stop-color="rgb(49.647522%, 76.043701%, 90.213013%)" stop-opacity="1"/>
<stop offset="0.257812" stop-color="rgb(49.453735%, 75.814819%, 90.159607%)" stop-opacity="1"/>
<stop offset="0.261719" stop-color="rgb(49.259949%, 75.584412%, 90.106201%)" stop-opacity="1"/>
<stop offset="0.265625" stop-color="rgb(49.066162%, 75.354004%, 90.052795%)" stop-opacity="1"/>
<stop offset="0.269531" stop-color="rgb(48.872375%, 75.123596%, 89.99939%)" stop-opacity="1"/>
<stop offset="0.273438" stop-color="rgb(48.680115%, 74.894714%, 89.94751%)" stop-opacity="1"/>
<stop offset="0.277344" stop-color="rgb(48.486328%, 74.664307%, 89.894104%)" stop-opacity="1"/>
<stop offset="0.28125" stop-color="rgb(48.292542%, 74.435425%, 89.840698%)" stop-opacity="1"/>
<stop offset="0.285156" stop-color="rgb(48.098755%, 74.205017%, 89.787292%)" stop-opacity="1"/>
<stop offset="0.289062" stop-color="rgb(47.904968%, 73.976135%, 89.733887%)" stop-opacity="1"/>
<stop offset="0.292969" stop-color="rgb(47.711182%, 73.745728%, 89.680481%)" stop-opacity="1"/>
<stop offset="0.296875" stop-color="rgb(47.517395%, 73.516846%, 89.628601%)" stop-opacity="1"/>
<stop offset="0.300781" stop-color="rgb(47.323608%, 73.286438%, 89.575195%)" stop-opacity="1"/>
<stop offset="0.304687" stop-color="rgb(47.131348%, 73.057556%, 89.52179%)" stop-opacity="1"/>
<stop offset="0.308594" stop-color="rgb(46.937561%, 72.827148%, 89.468384%)" stop-opacity="1"/>
<stop offset="0.3125" stop-color="rgb(46.743774%, 72.596741%, 89.414978%)" stop-opacity="1"/>
<stop offset="0.316406" stop-color="rgb(46.549988%, 72.366333%, 89.361572%)" stop-opacity="1"/>
<stop offset="0.320312" stop-color="rgb(46.356201%, 72.137451%, 89.308167%)" stop-opacity="1"/>
<stop offset="0.324219" stop-color="rgb(46.162415%, 71.907043%, 89.254761%)" stop-opacity="1"/>
<stop offset="0.328125" stop-color="rgb(45.968628%, 71.678162%, 89.202881%)" stop-opacity="1"/>
<stop offset="0.332031" stop-color="rgb(45.774841%, 71.447754%, 89.149475%)" stop-opacity="1"/>
<stop offset="0.335938" stop-color="rgb(45.582581%, 71.218872%, 89.096069%)" stop-opacity="1"/>
<stop offset="0.339844" stop-color="rgb(45.388794%, 70.988464%, 89.042664%)" stop-opacity="1"/>
<stop offset="0.34375" stop-color="rgb(45.195007%, 70.759583%, 88.989258%)" stop-opacity="1"/>
<stop offset="0.347656" stop-color="rgb(45.001221%, 70.529175%, 88.935852%)" stop-opacity="1"/>
<stop offset="0.351562" stop-color="rgb(44.807434%, 70.300293%, 88.883972%)" stop-opacity="1"/>
<stop offset="0.355469" stop-color="rgb(44.613647%, 70.069885%, 88.830566%)" stop-opacity="1"/>
<stop offset="0.359375" stop-color="rgb(44.419861%, 69.839478%, 88.777161%)" stop-opacity="1"/>
<stop offset="0.363281" stop-color="rgb(44.226074%, 69.60907%, 88.723755%)" stop-opacity="1"/>
<stop offset="0.367187" stop-color="rgb(44.033813%, 69.380188%, 88.670349%)" stop-opacity="1"/>
<stop offset="0.371094" stop-color="rgb(43.840027%, 69.14978%, 88.616943%)" stop-opacity="1"/>
<stop offset="0.375" stop-color="rgb(43.64624%, 68.920898%, 88.563538%)" stop-opacity="1"/>
<stop offset="0.378906" stop-color="rgb(43.452454%, 68.690491%, 88.510132%)" stop-opacity="1"/>
<stop offset="0.382812" stop-color="rgb(43.258667%, 68.461609%, 88.458252%)" stop-opacity="1"/>
<stop offset="0.386719" stop-color="rgb(43.06488%, 68.231201%, 88.404846%)" stop-opacity="1"/>
<stop offset="0.390625" stop-color="rgb(42.871094%, 68.002319%, 88.35144%)" stop-opacity="1"/>
<stop offset="0.394531" stop-color="rgb(42.677307%, 67.771912%, 88.298035%)" stop-opacity="1"/>
<stop offset="0.398437" stop-color="rgb(42.483521%, 67.54303%, 88.244629%)" stop-opacity="1"/>
<stop offset="0.402344" stop-color="rgb(42.289734%, 67.312622%, 88.191223%)" stop-opacity="1"/>
<stop offset="0.40625" stop-color="rgb(42.097473%, 67.082214%, 88.139343%)" stop-opacity="1"/>
<stop offset="0.410156" stop-color="rgb(41.903687%, 66.851807%, 88.085938%)" stop-opacity="1"/>
<stop offset="0.414062" stop-color="rgb(41.7099%, 66.622925%, 88.032532%)" stop-opacity="1"/>
<stop offset="0.417969" stop-color="rgb(41.516113%, 66.392517%, 87.979126%)" stop-opacity="1"/>
<stop offset="0.421875" stop-color="rgb(41.322327%, 66.163635%, 87.92572%)" stop-opacity="1"/>
<stop offset="0.425781" stop-color="rgb(41.12854%, 65.933228%, 87.872314%)" stop-opacity="1"/>
<stop offset="0.429688" stop-color="rgb(40.934753%, 65.704346%, 87.818909%)" stop-opacity="1"/>
<stop offset="0.433594" stop-color="rgb(40.740967%, 65.473938%, 87.765503%)" stop-opacity="1"/>
<stop offset="0.4375" stop-color="rgb(40.548706%, 65.245056%, 87.713623%)" stop-opacity="1"/>
<stop offset="0.441406" stop-color="rgb(40.354919%, 65.014648%, 87.660217%)" stop-opacity="1"/>
<stop offset="0.445312" stop-color="rgb(40.161133%, 64.785767%, 87.606812%)" stop-opacity="1"/>
<stop offset="0.449219" stop-color="rgb(39.967346%, 64.555359%, 87.553406%)" stop-opacity="1"/>
<stop offset="0.453125" stop-color="rgb(39.77356%, 64.324951%, 87.5%)" stop-opacity="1"/>
<stop offset="0.457031" stop-color="rgb(39.579773%, 64.094543%, 87.446594%)" stop-opacity="1"/>
<stop offset="0.460937" stop-color="rgb(39.385986%, 63.865662%, 87.393188%)" stop-opacity="1"/>
<stop offset="0.464844" stop-color="rgb(39.1922%, 63.635254%, 87.339783%)" stop-opacity="1"/>
<stop offset="0.46875" stop-color="rgb(38.999939%, 63.406372%, 87.287903%)" stop-opacity="1"/>
<stop offset="0.472656" stop-color="rgb(38.806152%, 63.175964%, 87.234497%)" stop-opacity="1"/>
<stop offset="0.476562" stop-color="rgb(38.612366%, 62.947083%, 87.181091%)" stop-opacity="1"/>
<stop offset="0.480469" stop-color="rgb(38.418579%, 62.716675%, 87.127686%)" stop-opacity="1"/>
<stop offset="0.484375" stop-color="rgb(38.224792%, 62.487793%, 87.07428%)" stop-opacity="1"/>
<stop offset="0.488281" stop-color="rgb(38.031006%, 62.257385%, 87.020874%)" stop-opacity="1"/>
<stop offset="0.492187" stop-color="rgb(37.837219%, 62.026978%, 86.968994%)" stop-opacity="1"/>
<stop offset="0.496094" stop-color="rgb(37.643433%, 61.79657%, 86.915588%)" stop-opacity="1"/>
<stop offset="0.5" stop-color="rgb(37.451172%, 61.567688%, 86.862183%)" stop-opacity="1"/>
<stop offset="0.503906" stop-color="rgb(37.257385%, 61.33728%, 86.808777%)" stop-opacity="1"/>
<stop offset="0.507812" stop-color="rgb(37.063599%, 61.108398%, 86.755371%)" stop-opacity="1"/>
<stop offset="0.511719" stop-color="rgb(36.869812%, 60.877991%, 86.701965%)" stop-opacity="1"/>
<stop offset="0.515625" stop-color="rgb(36.676025%, 60.649109%, 86.64856%)" stop-opacity="1"/>
<stop offset="0.519531" stop-color="rgb(36.482239%, 60.418701%, 86.595154%)" stop-opacity="1"/>
<stop offset="0.523438" stop-color="rgb(36.288452%, 60.189819%, 86.543274%)" stop-opacity="1"/>
<stop offset="0.527344" stop-color="rgb(36.094666%, 59.959412%, 86.489868%)" stop-opacity="1"/>
<stop offset="0.53125" stop-color="rgb(35.900879%, 59.73053%, 86.436462%)" stop-opacity="1"/>
<stop offset="0.535156" stop-color="rgb(35.707092%, 59.500122%, 86.383057%)" stop-opacity="1"/>
<stop offset="0.539062" stop-color="rgb(35.514832%, 59.269714%, 86.329651%)" stop-opacity="1"/>
<stop offset="0.542969" stop-color="rgb(35.321045%, 59.039307%, 86.276245%)" stop-opacity="1"/>
<stop offset="0.546875" stop-color="rgb(35.127258%, 58.810425%, 86.224365%)" stop-opacity="1"/>
<stop offset="0.550781" stop-color="rgb(34.933472%, 58.580017%, 86.170959%)" stop-opacity="1"/>
<stop offset="0.554688" stop-color="rgb(34.739685%, 58.351135%, 86.117554%)" stop-opacity="1"/>
<stop offset="0.558594" stop-color="rgb(34.545898%, 58.120728%, 86.064148%)" stop-opacity="1"/>
<stop offset="0.5625" stop-color="rgb(34.352112%, 57.891846%, 86.010742%)" stop-opacity="1"/>
<stop offset="0.566406" stop-color="rgb(34.158325%, 57.661438%, 85.957336%)" stop-opacity="1"/>
<stop offset="0.570312" stop-color="rgb(33.966064%, 57.432556%, 85.903931%)" stop-opacity="1"/>
<stop offset="0.574219" stop-color="rgb(33.772278%, 57.202148%, 85.850525%)" stop-opacity="1"/>
<stop offset="0.578125" stop-color="rgb(33.578491%, 56.973267%, 85.798645%)" stop-opacity="1"/>
<stop offset="0.582031" stop-color="rgb(33.384705%, 56.742859%, 85.745239%)" stop-opacity="1"/>
<stop offset="0.585938" stop-color="rgb(33.190918%, 56.512451%, 85.691833%)" stop-opacity="1"/>
<stop offset="0.589844" stop-color="rgb(32.997131%, 56.282043%, 85.638428%)" stop-opacity="1"/>
<stop offset="0.59375" stop-color="rgb(32.803345%, 56.053162%, 85.585022%)" stop-opacity="1"/>
<stop offset="0.597656" stop-color="rgb(32.609558%, 55.822754%, 85.531616%)" stop-opacity="1"/>
<stop offset="0.601562" stop-color="rgb(32.417297%, 55.593872%, 85.479736%)" stop-opacity="1"/>
<stop offset="0.605469" stop-color="rgb(32.223511%, 55.363464%, 85.426331%)" stop-opacity="1"/>
<stop offset="0.609375" stop-color="rgb(32.029724%, 55.134583%, 85.372925%)" stop-opacity="1"/>
<stop offset="0.613281" stop-color="rgb(31.835938%, 54.904175%, 85.319519%)" stop-opacity="1"/>
<stop offset="0.617188" stop-color="rgb(31.642151%, 54.675293%, 85.266113%)" stop-opacity="1"/>
<stop offset="0.621094" stop-color="rgb(31.448364%, 54.444885%, 85.212708%)" stop-opacity="1"/>
<stop offset="0.625" stop-color="rgb(31.254578%, 54.216003%, 85.159302%)" stop-opacity="1"/>
<stop offset="0.628906" stop-color="rgb(31.060791%, 53.985596%, 85.105896%)" stop-opacity="1"/>
<stop offset="0.632812" stop-color="rgb(30.867004%, 53.755188%, 85.054016%)" stop-opacity="1"/>
<stop offset="0.636719" stop-color="rgb(30.673218%, 53.52478%, 85.00061%)" stop-opacity="1"/>
<stop offset="0.640625" stop-color="rgb(30.480957%, 53.295898%, 84.947205%)" stop-opacity="1"/>
<stop offset="0.644531" stop-color="rgb(30.28717%, 53.065491%, 84.893799%)" stop-opacity="1"/>
<stop offset="0.648437" stop-color="rgb(30.093384%, 52.836609%, 84.840393%)" stop-opacity="1"/>
<stop offset="0.652344" stop-color="rgb(29.899597%, 52.606201%, 84.786987%)" stop-opacity="1"/>
<stop offset="0.65625" stop-color="rgb(29.705811%, 52.377319%, 84.735107%)" stop-opacity="1"/>
<stop offset="0.660156" stop-color="rgb(29.512024%, 52.146912%, 84.681702%)" stop-opacity="1"/>
<stop offset="0.664062" stop-color="rgb(29.318237%, 51.91803%, 84.628296%)" stop-opacity="1"/>
<stop offset="0.667969" stop-color="rgb(29.124451%, 51.687622%, 84.57489%)" stop-opacity="1"/>
<stop offset="0.671875" stop-color="rgb(28.93219%, 51.45874%, 84.521484%)" stop-opacity="1"/>
<stop offset="0.675781" stop-color="rgb(28.738403%, 51.228333%, 84.468079%)" stop-opacity="1"/>
<stop offset="0.679687" stop-color="rgb(28.544617%, 50.997925%, 84.414673%)" stop-opacity="1"/>
<stop offset="0.683594" stop-color="rgb(28.35083%, 50.767517%, 84.361267%)" stop-opacity="1"/>
<stop offset="0.6875" stop-color="rgb(28.157043%, 50.538635%, 84.309387%)" stop-opacity="1"/>
<stop offset="0.691406" stop-color="rgb(27.963257%, 50.308228%, 84.255981%)" stop-opacity="1"/>
<stop offset="0.695312" stop-color="rgb(27.76947%, 50.079346%, 84.202576%)" stop-opacity="1"/>
<stop offset="0.699219" stop-color="rgb(27.575684%, 49.848938%, 84.14917%)" stop-opacity="1"/>
<stop offset="0.703125" stop-color="rgb(27.383423%, 49.620056%, 84.095764%)" stop-opacity="1"/>
<stop offset="0.707031" stop-color="rgb(27.189636%, 49.389648%, 84.042358%)" stop-opacity="1"/>
<stop offset="0.710937" stop-color="rgb(26.99585%, 49.160767%, 83.990479%)" stop-opacity="1"/>
<stop offset="0.714844" stop-color="rgb(26.802063%, 48.930359%, 83.937073%)" stop-opacity="1"/>
<stop offset="0.71875" stop-color="rgb(26.608276%, 48.699951%, 83.883667%)" stop-opacity="1"/>
<stop offset="0.722656" stop-color="rgb(26.41449%, 48.469543%, 83.830261%)" stop-opacity="1"/>
<stop offset="0.726562" stop-color="rgb(26.220703%, 48.240662%, 83.776855%)" stop-opacity="1"/>
<stop offset="0.730469" stop-color="rgb(26.026917%, 48.010254%, 83.72345%)" stop-opacity="1"/>
<stop offset="0.734375" stop-color="rgb(25.834656%, 47.781372%, 83.670044%)" stop-opacity="1"/>
<stop offset="0.738281" stop-color="rgb(25.640869%, 47.550964%, 83.616638%)" stop-opacity="1"/>
<stop offset="0.742187" stop-color="rgb(25.447083%, 47.322083%, 83.564758%)" stop-opacity="1"/>
<stop offset="0.746094" stop-color="rgb(25.253296%, 47.091675%, 83.511353%)" stop-opacity="1"/>
<stop offset="0.75" stop-color="rgb(25.059509%, 46.862793%, 83.457947%)" stop-opacity="1"/>
<stop offset="0.753906" stop-color="rgb(24.865723%, 46.632385%, 83.404541%)" stop-opacity="1"/>
<stop offset="0.757813" stop-color="rgb(24.671936%, 46.403503%, 83.351135%)" stop-opacity="1"/>
<stop offset="0.761719" stop-color="rgb(24.478149%, 46.173096%, 83.297729%)" stop-opacity="1"/>
<stop offset="0.765625" stop-color="rgb(24.284363%, 45.942688%, 83.24585%)" stop-opacity="1"/>
<stop offset="0.769531" stop-color="rgb(24.090576%, 45.71228%, 83.192444%)" stop-opacity="1"/>
<stop offset="0.773438" stop-color="rgb(23.898315%, 45.483398%, 83.139038%)" stop-opacity="1"/>
<stop offset="0.777344" stop-color="rgb(23.704529%, 45.252991%, 83.085632%)" stop-opacity="1"/>
<stop offset="0.78125" stop-color="rgb(23.510742%, 45.024109%, 83.032227%)" stop-opacity="1"/>
<stop offset="0.785156" stop-color="rgb(23.316956%, 44.793701%, 82.978821%)" stop-opacity="1"/>
<stop offset="0.789062" stop-color="rgb(23.123169%, 44.564819%, 82.925415%)" stop-opacity="1"/>
<stop offset="0.792969" stop-color="rgb(22.929382%, 44.334412%, 82.872009%)" stop-opacity="1"/>
<stop offset="0.796875" stop-color="rgb(22.735596%, 44.10553%, 82.820129%)" stop-opacity="1"/>
<stop offset="0.800781" stop-color="rgb(22.541809%, 43.875122%, 82.766724%)" stop-opacity="1"/>
<stop offset="0.804688" stop-color="rgb(22.349548%, 43.64624%, 82.713318%)" stop-opacity="1"/>
<stop offset="0.808594" stop-color="rgb(22.155762%, 43.415833%, 82.659912%)" stop-opacity="1"/>
<stop offset="0.8125" stop-color="rgb(21.961975%, 43.185425%, 82.606506%)" stop-opacity="1"/>
<stop offset="0.816406" stop-color="rgb(21.768188%, 42.955017%, 82.553101%)" stop-opacity="1"/>
<stop offset="0.820312" stop-color="rgb(21.574402%, 42.726135%, 82.501221%)" stop-opacity="1"/>
<stop offset="0.824219" stop-color="rgb(21.380615%, 42.495728%, 82.447815%)" stop-opacity="1"/>
<stop offset="0.828125" stop-color="rgb(21.186829%, 42.266846%, 82.394409%)" stop-opacity="1"/>
<stop offset="0.832031" stop-color="rgb(20.993042%, 42.036438%, 82.341003%)" stop-opacity="1"/>
<stop offset="0.835938" stop-color="rgb(20.800781%, 41.807556%, 82.287598%)" stop-opacity="1"/>
<stop offset="0.839844" stop-color="rgb(20.606995%, 41.577148%, 82.234192%)" stop-opacity="1"/>
<stop offset="0.84375" stop-color="rgb(20.413208%, 41.348267%, 82.180786%)" stop-opacity="1"/>
<stop offset="0.847656" stop-color="rgb(20.219421%, 41.117859%, 82.12738%)" stop-opacity="1"/>
<stop offset="0.851562" stop-color="rgb(20.025635%, 40.888977%, 82.0755%)" stop-opacity="1"/>
<stop offset="0.855469" stop-color="rgb(19.831848%, 40.658569%, 82.022095%)" stop-opacity="1"/>
<stop offset="0.859375" stop-color="rgb(19.638062%, 40.428162%, 81.968689%)" stop-opacity="1"/>
<stop offset="0.875" stop-color="rgb(19.622803%, 40.409851%, 81.964111%)" stop-opacity="1"/>
<stop offset="1" stop-color="rgb(19.607544%, 40.391541%, 81.959534%)" stop-opacity="1"/>
</linearGradient>
</defs>
<g clip-path="url(#clip-0)">
<g clip-path="url(#clip-1)">
<path fill-rule="nonzero" fill="url(#linear-pattern-0)" d="M 1936.507812 -1936.5 L -1936.449219 1936.441406 L 1936.492188 5809.398438 L 5809.449219 1936.457031 Z M 1936.507812 -1936.5 "/>
</g>
</g>
<path fill-rule="evenodd" fill="rgb(100%, 100%, 99.609375%)" fill-opacity="1" d="M 935 2378 L 935 2107.601562 C 935 2091 948.601562 2077.300781 965.300781 2077.300781 L 3132.5 2077.300781 C 3149.101562 2077.300781 3162.800781 2090.898438 3162.800781 2107.601562 L 3162.800781 2378 Z M 1726 2668.101562 C 1643.5 2750.699219 1643.5 2885 1726.199219 2967.5 L 2049 3290.300781 L 2333 3008 C 2349.398438 2991.699219 2368.199219 2974.699219 2383.199219 2957.101562 C 2454.300781 2874 2451 2747.398438 2373.699219 2668.199219 C 2291.101562 2587.398438 2156.800781 2587.398438 2074.101562 2668.398438 L 2070.5 2672 C 2063.699219 2678.800781 2053.898438 2682 2044.199219 2680.5 C 2034.898438 2679 2027 2673.300781 2022.5 2665.199219 C 1939.300781 2587.199219 1807.5 2588.300781 1726 2668.101562 Z M 2027.5 3354.398438 L 1683.300781 3010.199219 C 1593 2919.898438 1579.601562 2781.199219 1643 2676.5 C 1660.898438 2647 1683.199219 2622.300781 1710.601562 2601.601562 C 1757.800781 2566.101562 1815.300781 2546.800781 1875.800781 2546.800781 C 1940.101562 2546.800781 2001 2568.5 2049.800781 2608.398438 C 2098.601562 2568.5 2159.5 2546.800781 2223.800781 2546.800781 C 2279.898438 2546.800781 2333.398438 2563.398438 2378.5 2594.101562 C 2404.601562 2611.800781 2424.699219 2631.300781 2443 2656.800781 C 2476.5 2703.199219 2494.601562 2759 2494.601562 2817.601562 C 2494.601562 2881.5 2473.101562 2942 2433.601562 2990.699219 C 2417 3011.199219 2395.398438 3030.898438 2377 3049.199219 L 2070.199219 3354.300781 C 2058.398438 3366.199219 2039.199219 3366.199219 2027.5 3354.398438 Z M 3132.398438 3414.300781 L 965.199219 3414.300781 C 948.601562 3414.300781 934.898438 3400.699219 934.898438 3384 L 934.898438 2438.398438 L 3162.601562 2438.398438 L 3162.601562 3384 C 3162.699219 3400.699219 3149.101562 3414.300781 3132.398438 3414.300781 "/>
<path fill-rule="evenodd" fill="rgb(100%, 100%, 99.609375%)" fill-opacity="1" d="M 2391.101562 1882.5 L 1708.398438 1882.5 C 1691.800781 1882.5 1678.101562 1868.898438 1678.101562 1852.199219 C 1678.101562 1835.601562 1691.699219 1821.898438 1708.398438 1821.898438 L 2391.101562 1821.898438 C 2407.699219 1821.898438 2421.398438 1835.5 2421.398438 1852.199219 C 2421.398438 1868.898438 2407.800781 1882.5 2391.101562 1882.5 Z M 971.800781 2016.800781 L 1160.601562 1584.898438 C 1165.300781 1573.898438 1176.300781 1566.699219 1188.398438 1566.699219 L 1874.601562 1566.699219 C 1891.898438 1586.398438 1911.898438 1604.398438 1934.101562 1620.601562 C 1991.699219 1662.398438 2061.300781 1682.101562 2132.101562 1682.101562 C 2225 1682.101562 2312.300781 1645.699219 2377.699219 1579.601562 C 2381.898438 1575.398438 2385.898438 1571.101562 2389.800781 1566.699219 L 2909.398438 1566.699219 C 2921.5 1566.699219 2932.300781 1573.898438 2937.199219 1584.898438 L 3126 2016.800781 L 971.800781 2016.800781 "/>
<path fill-rule="evenodd" fill="rgb(100%, 100%, 99.609375%)" fill-opacity="1" d="M 1120.300781 1302.898438 C 1111 1293.800781 1035 1218.699219 1006.5 1172.199219 L 727.898438 1044 C 717.101562 1039.101562 710.300781 1028.300781 710.300781 1016.601562 L 710.300781 488.898438 C 710.300781 478.300781 715.800781 468.5 724.898438 463 C 734 457.5 745.101562 457.101562 754.601562 462.101562 L 1177.300781 683.699219 L 1699.601562 683.699219 C 1761.800781 677.699219 1819.5 697 1863.898438 741.398438 L 1997.601562 894 C 2002.699219 899.5 2025.398438 924.300781 2037.5 962.101562 C 2041.800781 975.398438 2045 991.199219 2045.199219 1008.5 C 2009.101562 1021.300781 1975.5 1040.300781 1945.5 1064 L 1869.101562 1047.5 L 1896 978.398438 C 1902.101562 962.898438 1894.300781 945.300781 1878.800781 939.300781 C 1863.300781 933.199219 1845.699219 941 1839.699219 956.5 L 1809.300781 1034.601562 L 1743.101562 1020.300781 L 1692.101562 867.300781 C 1686.800781 851.398438 1669.800781 842.898438 1653.898438 848.199219 C 1638 853.5 1629.5 870.5 1634.800781 886.398438 L 1674.5 1005.398438 L 1564.101562 981.5 C 1547.800781 977.898438 1531.800781 988.300781 1528.199219 1004.601562 C 1524.601562 1020.898438 1535 1036.898438 1551.300781 1040.5 L 1679.199219 1068.199219 C 1750.300781 1083.601562 1821.5 1099 1892.699219 1114.398438 C 2078.699219 1157.898438 2080.898438 1345 1849.601562 1337.699219 C 1786.898438 1335.699219 1720 1328.601562 1659.601562 1312.601562 C 1628.199219 1309.699219 1611.398438 1308.601562 1573.601562 1328.898438 C 1529.898438 1352.699219 1460.699219 1382 1379.398438 1387.101562 C 1297.699219 1394.398438 1178.199219 1360.601562 1120.300781 1302.898438 "/>
<path fill-rule="evenodd" fill="rgb(100%, 100%, 99.609375%)" fill-opacity="1" d="M 1611 1480.601562 C 1597.800781 1480.601562 1584.300781 1478 1571.898438 1472.5 C 1548.101562 1462.101562 1529.699219 1443.398438 1520.300781 1419.699219 L 1519.699219 1418.398438 C 1548.300781 1408.398438 1576 1396.199219 1602.199219 1382 C 1622.398438 1371.101562 1627.398438 1368.300781 1648.898438 1372.101562 C 1698.398438 1380.800781 1748.101562 1389.898438 1798.199219 1394.800781 C 1798.800781 1400.5 1799.601562 1406.101562 1800.5 1411.699219 L 1646.601562 1474.101562 C 1646.398438 1474.101562 1646.398438 1474.300781 1646.199219 1474.300781 C 1634.699219 1478.398438 1622.800781 1480.601562 1611 1480.601562 "/>
<path fill-rule="evenodd" fill="rgb(100%, 100%, 99.609375%)" fill-opacity="1" d="M 1478.398438 1473.300781 C 1465.898438 1473.300781 1453.601562 1470.800781 1441.699219 1465.699219 C 1430 1460.800781 1419.5 1453.5 1410.699219 1444.601562 C 1437.601562 1441.101562 1464.5 1435.300781 1490.800781 1427.699219 C 1491.300781 1429 1491.800781 1430.199219 1492.300781 1431.5 C 1497.800781 1444.601562 1505.199219 1456.601562 1514.300781 1467 C 1508.800781 1468 1484 1473.300781 1478.398438 1473.300781 "/>
<path fill-rule="evenodd" fill="rgb(100%, 100%, 99.609375%)" fill-opacity="1" d="M 2315.5 1341.699219 C 2298.898438 1341.699219 2285.199219 1328.101562 2285.199219 1311.398438 C 2285.199219 1258.398438 2254 1211.5 2205.800781 1191.898438 C 2190.300781 1185.699219 2182.898438 1167.898438 2189.199219 1152.601562 C 2195.398438 1137.101562 2213.199219 1129.699219 2228.5 1136 C 2299.800781 1164.898438 2345.699219 1233.800781 2345.699219 1311.5 C 2345.699219 1328.101562 2332.101562 1341.699219 2315.5 1341.699219 Z M 2132 1621.601562 C 2073.800781 1621.601562 2017.601562 1604.398438 1969.601562 1571.699219 C 1905.398438 1522 1871.800781 1460.898438 1861.699219 1398.300781 C 1912 1398.398438 1965 1390.101562 2008.800781 1365 C 2029.101562 1353.398438 2046.699219 1338.398438 2060.300781 1320.398438 C 2060.601562 1328.601562 2064.300781 1336.601562 2071.101562 1342.300781 C 2088.699219 1357.101562 2109.101562 1364.398438 2132 1364.398438 C 2149.800781 1364.398438 2164.101562 1379.699219 2164.101562 1398.398438 C 2164.101562 1443.601562 2097.898438 1443 2097.898438 1398.398438 C 2097.898438 1381.800781 2084.300781 1368.101562 2067.601562 1368.101562 C 2051 1368.101562 2037.300781 1381.699219 2037.300781 1398.398438 C 2037.300781 1423.699219 2047.101562 1447.601562 2064.898438 1465.300781 C 2075.5 1475.898438 2088.101562 1483.601562 2102 1488.199219 C 2104.300781 1502.601562 2116.800781 1513.699219 2131.898438 1513.699219 C 2147 1513.699219 2159.699219 1502.398438 2161.800781 1487.898438 C 2198.300781 1475.199219 2224.699219 1440.101562 2224.699219 1398.601562 C 2224.699219 1346.398438 2183.101562 1304 2132 1304 C 2123.101562 1304 2116.5 1301.5 2109.699219 1295.898438 C 2100.101562 1287.898438 2087.199219 1286.800781 2076.699219 1292.101562 C 2081.898438 1280.398438 2085.5 1267.800781 2087.199219 1254.5 C 2087.898438 1249.5 2088.199219 1244.5 2088.300781 1239.5 C 2096 1243.898438 2105.699219 1244.898438 2114.601562 1241.300781 C 2120.699219 1238.800781 2126.101562 1237.699219 2131.800781 1237.699219 C 2149.601562 1237.699219 2163.898438 1253 2163.898438 1271.699219 C 2163.898438 1288.300781 2177.5 1302 2194.199219 1302 C 2210.800781 1302 2224.5 1288.398438 2224.300781 1271.898438 C 2224.300781 1230.601562 2198.199219 1195.398438 2162 1182.601562 C 2160.898438 1167 2147.699219 1154.5 2131.800781 1154.5 C 2116.199219 1154.5 2103.199219 1166.5 2101.699219 1181.800781 C 2098.5 1182.800781 2095.300781 1183.898438 2092.101562 1185.199219 C 2087.800781 1186.898438 2084.199219 1189.5 2081.300781 1192.601562 C 2073.5 1168.398438 2059.601562 1146.199219 2041.699219 1127.300781 C 2030.5 1115.601562 2018.101562 1105.300781 2004.699219 1096.300781 C 2096.699219 1038.101562 2219.398438 1032.199219 2334.300781 1131.800781 C 2388 1185.5 2417.699219 1257.398438 2417.699219 1334 C 2417.699219 1410.800781 2388.199219 1482.800781 2334.5 1537.101562 C 2280.5 1591.699219 2208.601562 1621.601562 2132 1621.601562 "/>
</svg>
